# Blender 4.3.2
# www.blender.org
mtllib door.mtl
o Cube
v 0.012297 -3.873183 0.152466
v 0.012297 3.873183 0.152466
v 0.012297 -3.873183 -0.152466
v 0.012297 3.873183 -0.152466
v 3.996144 -3.873183 0.152466
v 3.996144 3.873183 0.152466
v 3.996144 -3.873183 -0.152466
v 3.996144 3.873183 -0.152466
vn -1.0000 -0.0000 -0.0000
vn -0.0000 -0.0000 -1.0000
vn 1.0000 -0.0000 -0.0000
vn -0.0000 -0.0000 1.0000
vn -0.0000 -1.0000 -0.0000
vn -0.0000 1.0000 -0.0000
vt 0.530555 0.000000
vt 0.880993 0.000000
vt 0.880993 0.250000
vt 0.530555 0.250000
vt 0.511888 0.990210
vt 0.507604 0.008946
vt 1.000098 0.009659
vt 1.004382 0.990922
vt 0.397047 0.500000
vt 0.489042 0.500000
vt 0.489042 0.750000
vt 0.397047 0.750000
vt 0.001041 0.998570
vt 0.001041 0.001430
vt 0.497248 0.001430
vt 0.497248 0.998570
vt 0.125000 0.196851
vt 0.375000 0.196851
vt 0.375000 0.371523
vt 0.125000 0.371523
vt 0.625000 0.296063
vt 0.875000 0.296063
vt 0.875000 0.457874
vt 0.625000 0.457874
s 0
usemtl Material.001
f 1/1/1 2/2/1 4/3/1 3/4/1
f 3/5/2 4/6/2 8/7/2 7/8/2
f 7/9/3 8/10/3 6/11/3 5/12/3
f 5/13/4 6/14/4 2/15/4 1/16/4
f 3/17/5 7/18/5 5/19/5 1/20/5
f 8/21/6 4/22/6 2/23/6 6/24/6
